<!--?xml version="1.0" encoding="utf-8"?-->
<!-- Generator: Adobe Illustrator 18.0.0, SVG Export Plug-In . SVG Version: 6.00 Build 0)  -->

<svg version="1.1" id="_x32_" xmlns="http://www.w3.org/2000/svg" xmlns:xlink="http://www.w3.org/1999/xlink" x="0px" y="0px" viewBox="0 0 512 512" style="width: 256px; height: 256px; opacity: 1;" xml:space="preserve">
<style type="text/css">
	.st0{fill:#4B4B4B;}
</style>
<g>
	<path class="st0" d="M492.097,129.239L269.379,3.504c-8.278-4.672-18.398-4.672-26.675,0L33.621,121.532
		c-8.527,4.813-13.798,13.845-13.796,23.634l0.071,221.613c0.004,9.78,5.269,18.801,13.784,23.612L242.694,508.49
		c8.283,4.68,18.41,4.68,26.693,0l209.004-118.093c8.519-4.815,13.786-13.844,13.784-23.63L492.097,129.239z M451.549,175.852
		v183.025l-119.508,67.501l-59.762,33.617V276.976l64.198-36.243v65.124l-0.119,32.371l0.119-0.068v0.284l74.8-42.242v-97.745
		l27.454-15.5L451.549,175.852z M430.211,141.095l-39.53,22.358L276.422,98.922l-59.948-34.008l39.566-22.296l114.354,64.559
		L430.211,141.095z M239.776,400.207l-0.119,59.845L60.532,358.877V175.719l179.244,101.242V400.207z M81.868,140.95l59.863-33.825
		l114.804,64.838l59.448,33.722l-59.944,33.823l-115.318-65.16L81.868,140.95z" style="fill: rgb(19, 52, 131);"></path>
</g>
</svg>
