<!--?xml version="1.0" encoding="utf-8"?-->
<!-- Generator: Adobe Illustrator 18.1.1, SVG Export Plug-In . SVG Version: 6.00 Build 0)  -->

<svg version="1.1" id="_x32_" xmlns="http://www.w3.org/2000/svg" xmlns:xlink="http://www.w3.org/1999/xlink" x="0px" y="0px" viewBox="0 0 512 512" style="width: 256px; height: 256px; opacity: 1;" xml:space="preserve">
<style type="text/css">
	.st0{fill:#4B4B4B;}
</style>
<g>
	<path class="st0" d="M383.026,301.209c-15.786,55.296-66.665,95.798-127.036,95.798c-60.361,0-111.241-40.502-127.017-95.798H0
		v158.56h512v-158.56H383.026z" style="fill: rgb(255, 255, 255);"></path>
	<rect x="33.028" y="250.419" class="st0" width="445.934" height="22.306" style="fill: rgb(255, 255, 255);"></rect>
	<path class="st0" d="M352.152,299.97H159.857c2.872,7.986,6.738,15.461,11.4,22.297h169.447
		C345.415,315.431,349.281,307.956,352.152,299.97z" style="fill: rgb(255, 255, 255);"></path>
	<path class="st0" d="M313.36,349.522H198.599c16.554,11.242,36.421,17.743,57.381,17.743
		C276.94,367.265,296.808,360.764,313.36,349.522z" style="fill: rgb(255, 255, 255);"></path>
	<rect x="33.028" y="200.877" class="st0" width="445.934" height="22.298" style="fill: rgb(255, 255, 255);"></rect>
	<rect x="33.028" y="151.335" class="st0" width="445.934" height="22.287" style="fill: rgb(255, 255, 255);"></rect>
	<rect x="33.028" y="101.783" class="st0" width="445.934" height="22.287" style="fill: rgb(255, 255, 255);"></rect>
	<rect x="33.028" y="52.231" class="st0" width="445.934" height="22.298" style="fill: rgb(255, 255, 255);"></rect>
</g>
</svg>
